<?xml version="1.0" standalone="no"?>
<!DOCTYPE svg PUBLIC "-//W3C//DTD SVG 20010904//EN"
 "http://www.w3.org/TR/2001/REC-SVG-20010904/DTD/svg10.dtd">
<svg version="1.0" xmlns="http://www.w3.org/2000/svg"
 width="500.000000pt" height="500.000000pt" viewBox="0 0 500.000000 500.000000"
 preserveAspectRatio="xMidYMid meet">
<metadata>
Created by potrace 1.14, written by Peter Selinger 2001-2017
</metadata>
<g transform="translate(0.000000,500.000000) scale(0.100000,-0.100000)"
fill="#000000" stroke="none">
<path d="M4558 4381 c-12 -16 -241 -171 -253 -171 -2 0 -34 -19 -70 -42 l-67
-41 -71 16 c-158 37 -313 82 -326 95 -7 7 -20 11 -28 8 -8 -3 -17 -6 -19 -6
-2 0 -4 -18 -4 -40 0 -22 -11 -72 -24 -112 -13 -40 -43 -136 -66 -213 -39
-130 -76 -248 -121 -388 -15 -47 -74 -161 -149 -287 -14 -24 -186 -321 -208
-360 -10 -19 -42 -75 -71 -124 -28 -49 -51 -90 -51 -92 0 -2 -15 -27 -33 -56
-18 -29 -39 -66 -47 -82 -26 -51 -86 -100 -196 -161 -162 -90 -228 -126 -354
-198 -63 -35 -133 -74 -155 -87 -22 -12 -64 -35 -93 -52 -29 -17 -56 -28 -59
-24 -10 10 -42 -14 -45 -35 -4 -26 -278 -396 -298 -403 -8 -2 -53 -8 -100 -11
-47 -4 -96 -9 -110 -10 -21 -3 -129 -12 -230 -20 -14 -1 -33 2 -43 7 -14 7
-24 5 -38 -8 -10 -9 -19 -21 -19 -27 0 -12 -358 -356 -371 -357 -3 0 -43 23
-90 51 -90 54 -96 57 -175 107 -29 17 -58 32 -63 32 -6 0 -26 16 -46 36 -39
38 -68 41 -73 7 -3 -18 4 -24 33 -32 27 -7 341 -186 384 -218 11 -8 -12 -11
-119 -17 -63 -4 -143 -9 -176 -12 -36 -3 -70 -1 -81 5 -23 12 -43 -2 -43 -30
0 -24 16 -32 38 -20 22 12 93 19 247 26 l110 4 -75 -70 c-41 -39 -118 -113
-170 -164 -53 -52 -108 -98 -123 -104 -28 -11 -36 -38 -15 -59 14 -14 48 2 48
22 0 8 30 42 66 77 342 330 317 310 352 299 17 -4 50 -22 74 -38 24 -16 48
-31 53 -33 35 -13 225 -136 225 -145 0 -31 60 -24 60 7 0 14 129 198 169 242
9 9 64 14 236 22 235 11 330 16 343 20 7 3 24 -1 38 -7 22 -10 28 -9 42 8 10
11 62 40 117 63 55 24 123 54 150 66 47 21 106 47 300 132 44 19 104 46 133
60 30 13 72 28 95 31 40 7 42 10 43 42 1 46 17 100 122 428 l27 83 65 -48 c60
-44 295 -212 419 -300 29 -21 59 -43 65 -48 6 -6 26 -21 44 -34 17 -12 32 -29
32 -37 0 -19 48 -23 60 -5 3 4 88 18 190 30 102 12 210 24 240 28 30 3 64 7
75 8 11 1 36 5 55 8 69 11 156 20 210 21 49 1 55 3 58 24 5 30 -23 39 -49 16
-12 -11 -23 -17 -25 -15 -4 3 -41 0 -179 -15 -79 -8 -122 -13 -280 -34 -88
-12 -200 -23 -248 -25 l-89 -3 -70 51 c-38 29 -82 61 -98 72 -41 29 -198 142
-333 240 -66 47 -123 85 -128 85 -13 0 -12 6 15 90 13 41 41 129 61 195 20 66
49 161 65 210 16 50 38 124 50 165 11 41 25 84 29 95 5 11 20 58 34 105 155
518 155 520 267 715 103 179 143 231 200 266 19 12 58 36 85 54 28 18 95 61
150 95 l100 63 184 -47 c106 -27 195 -56 209 -67 29 -23 52 -11 52 27 0 22 -4
24 -42 24 -24 0 -95 14 -158 31 -63 17 -135 36 -160 43 l-45 12 25 16 c92 57
233 145 248 153 9 6 34 20 53 33 20 12 46 22 58 22 18 0 22 5 19 27 -4 34 -31
41 -50 14z m-590 -237 c170 -43 167 -38 62 -103 -190 -118 -257 -156 -279
-161 -18 -4 -27 -13 -31 -35 -6 -27 -30 -72 -122 -230 -17 -27 -27 -41 -23
-30 3 11 12 43 20 70 12 45 33 114 81 270 9 28 29 95 45 150 31 103 49 130 78
116 9 -4 85 -26 169 -47z m-534 -901 c-8 -27 -21 -70 -28 -98 -8 -27 -21 -70
-29 -95 -8 -25 -34 -108 -57 -185 -40 -133 -82 -269 -135 -435 -13 -41 -43
-139 -66 -217 l-43 -142 -57 41 c-32 22 -65 51 -74 64 -19 29 -45 31 -52 5 -3
-10 -55 -56 -116 -102 -62 -45 -114 -85 -117 -89 -5 -5 -86 -67 -405 -306 -88
-66 -176 -125 -195 -131 -35 -12 -260 -29 -260 -20 0 3 26 38 57 78 31 41 93
121 136 179 43 58 86 109 95 114 10 5 20 15 24 22 5 7 43 31 85 55 43 23 92
50 108 59 17 10 59 34 95 55 69 39 131 74 220 123 30 17 105 58 165 91 61 33
120 61 131 61 21 0 34 17 34 46 0 8 42 87 94 177 51 89 103 178 114 197 11 19
36 64 57 100 20 36 40 70 44 75 5 6 22 35 38 65 34 62 57 102 100 175 16 28
32 58 36 68 14 37 15 14 1 -30z m-472 -1127 c14 -12 44 -33 66 -48 l40 -28
-15 -42 c-8 -24 -17 -53 -19 -66 -3 -13 -18 -62 -33 -110 -16 -48 -43 -133
-61 -189 -34 -109 -61 -146 -118 -159 -15 -4 -31 -10 -37 -14 -5 -4 -62 -30
-125 -57 -394 -173 -516 -227 -525 -233 -18 -13 -107 -24 -275 -34 -100 -6
-143 -9 -308 -21 -69 -5 -73 -4 -60 12 25 35 253 336 265 351 8 10 43 17 110
23 54 5 118 11 143 13 24 3 49 1 56 -5 14 -11 44 -1 44 15 0 7 18 25 41 42 22
16 46 34 52 40 7 5 37 28 67 51 30 23 185 140 343 260 159 121 296 220 305
220 10 0 29 -9 44 -21z m-1242 -634 c0 -4 -17 -28 -37 -54 -21 -26 -49 -63
-63 -83 -14 -20 -37 -50 -52 -68 -15 -18 -28 -35 -28 -38 0 -3 -10 -17 -21
-30 -18 -20 -71 -89 -74 -96 -4 -10 -165 -13 -182 -5 -14 8 -23 8 -30 1 -11
-11 -21 -12 -238 -24 l-130 -7 41 38 c22 22 107 103 188 181 82 79 152 141
156 138 4 -3 13 1 19 8 6 8 34 15 63 16 29 1 69 4 88 5 19 2 82 7 140 11 58 4
107 9 109 11 8 7 51 4 51 -4z m-310 -407 c0 -5 -47 -71 -78 -110 -4 -5 -23
-30 -43 -55 -19 -25 -40 -46 -46 -47 -6 -1 -82 40 -168 92 l-158 95 44 1 c46
1 121 6 203 13 28 2 58 -1 67 -7 13 -8 24 -8 41 0 31 15 41 18 93 21 25 1 45
0 45 -3z"/>
</g>
</svg>
